<?xml version="1.0" encoding="UTF-8"?>
<svg id="Capa_1" xmlns="http://www.w3.org/2000/svg" version="1.1" viewBox="0 0 1000 1000">
  <!-- Generator: Adobe Illustrator 30.0.0, SVG Export Plug-In . SVG Version: 2.1.1 Build 123)  -->
  <defs>
    <style>
      .st0 {
        fill: #fff;
      }
    </style>
  </defs>
  <g>
    <path class="st0" d="M278.65,390.79c-.99,0-1.97-.02-2.97-.06l-5.8-.25.25-5.8c.78-18.31,8.65-35.21,22.14-47.6,13.5-12.39,31-18.82,49.32-18l5.8.25-.25,5.8c-1.57,36.79-32.01,65.67-68.5,65.67ZM334.97,330.73c-12.95.82-25.14,5.99-34.84,14.89-9.7,8.9-15.89,20.61-17.81,33.44,26.64-1.71,48.67-21.94,52.65-48.33Z"/>
    <path class="st0" d="M270.4,452.78c-35.93,0-66.2-28.08-68.42-64.41l-.35-5.79,5.79-.35c37.77-2.37,70.35,26.53,72.65,64.28l.35,5.79-5.79.35c-1.42.09-2.83.13-4.23.13ZM214.25,393.76c2.16,12.8,8.57,24.39,18.43,33.11,9.86,8.72,22.14,13.67,35.11,14.25-4.47-26.32-26.87-46.13-53.53-47.36Z"/>
    <rect class="st0" x="270.13" y="384.99" width="11.6" height="142.42"/>
  </g>
  <g>
    <path class="st0" d="M720.99,390.79c-36.49,0-66.92-28.87-68.5-65.67l-.25-5.8,5.8-.25c18.29-.8,35.82,5.61,49.32,18,13.5,12.39,21.36,29.3,22.14,47.6l.25,5.8-5.8.25c-.99.04-1.98.06-2.97.06ZM664.68,330.73c3.98,26.4,26.01,46.62,52.65,48.33-1.92-12.84-8.12-24.54-17.81-33.44-9.7-8.9-21.89-14.08-34.84-14.89Z"/>
    <path class="st0" d="M729.3,452.78c-1.42,0-2.85-.04-4.28-.13l-5.79-.35.35-5.79c2.31-37.75,34.91-66.62,72.65-64.28l5.79.35-.35,5.79c-1.12,18.29-9.29,35.05-23.01,47.19-12.65,11.19-28.62,17.23-45.36,17.23ZM785.39,393.75c-12.97.58-25.25,5.53-35.11,14.25-9.86,8.72-16.27,20.31-18.42,33.11,12.97-.58,25.25-5.53,35.11-14.25,9.86-8.72,16.27-20.31,18.42-33.11Z"/>
    <rect class="st0" x="717.91" y="384.99" width="11.6" height="144.28"/>
  </g>
  <g>
    <path class="st0" d="M389.67,426.78l-2.97-4.99c-12.66-21.25-5.66-48.83,15.59-61.48l4.98-2.97,2.97,4.99c6.13,10.29,7.88,22.36,4.94,33.97-2.94,11.61-10.23,21.38-20.53,27.51l-4.98,2.97ZM403.03,374.09c-10.01,8.98-13.63,23.27-9.11,35.93,4.89-4.37,8.37-10.09,10.01-16.58,1.65-6.49,1.31-13.18-.9-19.35Z"/>
    <path class="st0" d="M371.62,430.24c-3.7,0-7.42-.46-11.1-1.4-11.61-2.94-21.38-10.23-27.51-20.53l-2.97-4.98,4.99-2.97c10.29-6.13,22.36-7.88,33.97-4.94,11.61,2.94,21.38,10.23,27.51,20.53l2.97,4.98-4.99,2.97c-7.03,4.19-14.89,6.34-22.87,6.34ZM346.78,407.58c4.37,4.89,10.09,8.37,16.58,10.02,6.49,1.64,13.18,1.31,19.35-.91-4.37-4.89-10.09-8.37-16.58-10.02-6.5-1.65-13.19-1.31-19.35.91Z"/>
    <path class="st0" d="M375.96,480.46l-2.97-4.99c-6.13-10.29-7.89-22.36-4.94-33.97,2.94-11.61,10.23-21.38,20.53-27.51l4.98-2.97,2.97,4.99c12.65,21.25,5.66,48.83-15.59,61.48l-4.98,2.97ZM389.31,427.78c-4.89,4.37-8.37,10.09-10.01,16.58-1.65,6.49-1.31,13.18.91,19.35,10.01-8.98,13.63-23.26,9.11-35.93Z"/>
    <path class="st0" d="M425.35,443.76c-3.7,0-7.42-.46-11.1-1.39-11.61-2.94-21.38-10.23-27.51-20.53l-2.97-4.98,4.99-2.97c21.25-12.66,48.83-5.66,61.48,15.59l2.97,4.98-4.99,2.97c-7.03,4.19-14.89,6.33-22.87,6.33ZM400.52,421.11c4.37,4.89,10.09,8.37,16.58,10.01,6.49,1.65,13.18,1.31,19.35-.9-8.98-10.01-23.27-13.63-35.93-9.11Z"/>
  </g>
  <g>
    <path class="st0" d="M612.02,426.78l-4.98-2.97c-10.29-6.13-17.58-15.9-20.53-27.51-2.94-11.61-1.19-23.68,4.94-33.97l2.97-4.99,4.98,2.97c21.25,12.66,28.24,40.24,15.58,61.48l-2.97,4.99ZM598.66,374.09c-2.22,6.17-2.55,12.85-.91,19.35,1.65,6.49,5.13,12.21,10.01,16.58,4.53-12.66.9-26.95-9.1-35.93Z"/>
    <path class="st0" d="M630.07,430.21c-7.8,0-15.7-2.03-22.87-6.31l-4.99-2.97,2.97-4.98c6.13-10.29,15.9-17.58,27.51-20.53,11.62-2.94,23.68-1.19,33.97,4.94l4.99,2.97-2.97,4.98c-8.38,14.07-23.31,21.89-38.61,21.89ZM618.97,416.69c12.66,4.53,26.95.91,35.93-9.11-6.17-2.22-12.86-2.56-19.35-.9-6.49,1.65-12.21,5.13-16.58,10.01Z"/>
    <path class="st0" d="M625.72,480.46l-4.98-2.97c-21.25-12.66-28.24-40.24-15.59-61.48l2.97-4.99,4.99,2.97c10.29,6.13,17.58,15.9,20.53,27.51,2.94,11.61,1.19,23.68-4.94,33.97l-2.97,4.99ZM612.38,427.78c-4.53,12.66-.9,26.95,9.1,35.93,2.22-6.17,2.55-12.85.91-19.35-1.65-6.49-5.13-12.21-10.01-16.58Z"/>
    <path class="st0" d="M576.34,443.76c-7.98,0-15.84-2.15-22.87-6.33l-4.99-2.97,2.97-4.98c12.65-21.25,40.23-28.25,61.48-15.59l4.99,2.97-2.97,4.98c-6.13,10.29-15.9,17.58-27.51,20.53-3.68.93-7.4,1.39-11.1,1.39ZM565.24,430.22c6.17,2.21,12.85,2.55,19.35.9,6.49-1.65,12.21-5.13,16.58-10.01-12.66-4.53-26.95-.91-35.93,9.11Z"/>
  </g>
  <g>
    <path class="st0" d="M499.42,344.95c-42.74,0-77.5-34.77-77.5-77.5s34.77-77.5,77.5-77.5,77.5,34.77,77.5,77.5-34.77,77.5-77.5,77.5ZM499.42,201.54c-36.34,0-65.9,29.56-65.9,65.9s29.56,65.9,65.9,65.9,65.9-29.56,65.9-65.9-29.56-65.9-65.9-65.9Z"/>
    <path class="st0" d="M499.58,201.54c-3.2,0-5.8-2.6-5.8-5.8v-61.93c0-3.2,2.6-5.8,5.8-5.8s5.8,2.6,5.8,5.8v61.93c0,3.2-2.6,5.8-5.8,5.8Z"/>
    <path class="st0" d="M552.56,223.44c-1.49,0-2.97-.57-4.1-1.7-2.27-2.27-2.27-5.94,0-8.21l43.79-43.79c2.27-2.27,5.94-2.27,8.21,0,2.27,2.27,2.27,5.94,0,8.21l-43.79,43.79c-1.13,1.13-2.62,1.7-4.1,1.7Z"/>
    <path class="st0" d="M444.48,223.44c-1.49,0-2.97-.57-4.1-1.7l-43.79-43.79c-2.27-2.27-2.27-5.94,0-8.21,2.27-2.27,5.94-2.27,8.21,0l43.79,43.79c2.27,2.27,2.27,5.94,0,8.21-1.13,1.13-2.62,1.7-4.1,1.7Z"/>
    <path class="st0" d="M383.15,162.12c-1.49,0-2.97-.57-4.1-1.7l-4.36-4.36c-2.27-2.27-2.27-5.94,0-8.2,2.27-2.27,5.94-2.27,8.2,0l4.36,4.36c2.27,2.27,2.27,5.94,0,8.2-1.13,1.13-2.62,1.7-4.1,1.7Z"/>
    <path class="st0" d="M613.42,162.12c-1.49,0-2.97-.57-4.1-1.7-2.27-2.27-2.27-5.94,0-8.2l4.36-4.36c2.27-2.27,5.94-2.27,8.2,0,2.27,2.27,2.27,5.94,0,8.2l-4.36,4.36c-1.13,1.13-2.62,1.7-4.1,1.7Z"/>
    <path class="st0" d="M470.42,205.38c-2.24,0-4.37-1.3-5.32-3.48l-15.33-35.02c-1.28-2.93.05-6.36,2.99-7.64,2.94-1.28,6.36.05,7.64,2.99l15.33,35.02c1.28,2.93-.05,6.36-2.99,7.64-.76.33-1.55.49-2.32.49Z"/>
    <path class="st0" d="M530.74,205.68c-.7,0-1.42-.13-2.11-.4-2.98-1.17-4.46-4.53-3.29-7.52l13.92-35.6c1.17-2.98,4.53-4.46,7.52-3.29,2.98,1.17,4.46,4.53,3.29,7.52l-13.92,35.6c-.9,2.29-3.09,3.69-5.41,3.69Z"/>
    <path class="st0" d="M555.62,142.63c-.7,0-1.42-.13-2.11-.4-2.98-1.17-4.46-4.53-3.29-7.52l1.8-4.59c1.17-2.98,4.53-4.46,7.52-3.29,2.98,1.17,4.46,4.53,3.29,7.52l-1.8,4.59c-.9,2.29-3.09,3.69-5.41,3.69Z"/>
    <path class="st0" d="M444.48,142.63c-2.32,0-4.51-1.4-5.41-3.69l-1.8-4.59c-1.17-2.98.31-6.35,3.29-7.52,2.98-1.16,6.35.31,7.52,3.29l1.8,4.59c1.17,2.98-.31,6.35-3.29,7.52-.69.27-1.41.4-2.11.4Z"/>
    <path class="st0" d="M570.05,249.87c-2.15,0-4.21-1.2-5.22-3.26-1.41-2.88-.21-6.35,2.67-7.76l34.36-16.76c2.87-1.41,6.35-.21,7.76,2.67,1.41,2.88.21,6.35-2.67,7.76l-34.36,16.76c-.82.4-1.69.59-2.54.59Z"/>
    <path class="st0" d="M429.49,249.87c-.85,0-1.72-.19-2.54-.59l-34.36-16.76c-2.88-1.41-4.07-4.88-2.67-7.76,1.4-2.88,4.88-4.08,7.76-2.67l34.36,16.76c2.88,1.41,4.07,4.88,2.67,7.76-1,2.06-3.07,3.26-5.22,3.26Z"/>
    <path class="st0" d="M636.38,277.24h-61.93c-3.2,0-5.8-2.6-5.8-5.8s2.6-5.8,5.8-5.8h61.93c3.2,0,5.8,2.6,5.8,5.8s-2.6,5.8-5.8,5.8Z"/>
    <path class="st0" d="M422.58,277.24h-61.93c-3.2,0-5.8-2.6-5.8-5.8s2.6-5.8,5.8-5.8h61.93c3.2,0,5.8,2.6,5.8,5.8s-2.6,5.8-5.8,5.8Z"/>
    <path class="st0" d="M499.42,113.82c-3.2,0-5.8-2.6-5.8-5.8v-5.69c0-3.2,2.6-5.8,5.8-5.8s5.8,2.6,5.8,5.8v5.69c0,3.2-2.6,5.8-5.8,5.8Z"/>
    <path class="st0" d="M336.11,277.24h-5.69c-3.2,0-5.8-2.6-5.8-5.8s2.6-5.8,5.8-5.8h5.69c3.2,0,5.8,2.6,5.8,5.8s-2.6,5.8-5.8,5.8Z"/>
    <path class="st0" d="M667.34,277.24h-5.69c-3.2,0-5.8-2.6-5.8-5.8s2.6-5.8,5.8-5.8h5.69c3.2,0,5.8,2.6,5.8,5.8s-2.6,5.8-5.8,5.8Z"/>
    <path class="st0" d="M365.76,219.31c-.85,0-1.72-.19-2.54-.59l-5.11-2.49c-2.88-1.41-4.08-4.88-2.67-7.76,1.41-2.88,4.88-4.07,7.76-2.67l5.11,2.49c2.88,1.41,4.08,4.88,2.67,7.76-1.01,2.06-3.07,3.26-5.22,3.26Z"/>
    <path class="st0" d="M629.85,223.44c-2.15,0-4.22-1.2-5.22-3.26-1.4-2.88-.21-6.35,2.67-7.76l5.11-2.49c2.88-1.41,6.35-.21,7.76,2.67,1.4,2.88.21,6.35-2.67,7.76l-5.11,2.49c-.82.4-1.69.59-2.54.59Z"/>
  </g>
  <rect class="st0" x="234.07" y="750.95" width="132.21" height="14.35"/>
  <rect class="st0" x="634.71" y="750.95" width="132.21" height="14.35"/>
  <g>
    <path class="st0" d="M791.88,515.16c-68.87,0-133.61,26.82-182.31,75.52-26.35,26.35-46.28,57.41-59.04,91.28,4.26-.12,8.52-.28,12.77-.48,35.71-88.86,121.79-152.26,222.7-154.64-2.19,93.19-56.43,173.72-134.7,213.63-2.61,5.88-5.6,11.7-9.11,17.12,91.39-39.68,155.48-130.8,155.48-236.62v-5.8h-5.8Z"/>
    <path class="st0" d="M626.04,679.09c5.4-.18,10.83-.42,16.25-.32l148.76-148.76-8.21-8.21-157.3,157.3c.17,0,.33,0,.5-.01Z"/>
    <path class="st0" d="M703.66,606.96c-21.24-33.21-7.53-70.07-6.93-71.62l10.84,4.15-5.42-2.07,5.42,2.06c-.12.33-12.16,33.04,5.87,61.23l-9.78,6.25Z"/>
    <path class="st0" d="M748.29,620.74c-12.81,0-28.24-2.66-42.87-12.02l6.25-9.78c28.23,18.06,61.45,6.42,61.78,6.3l3.96,10.9c-.88.32-12.9,4.59-29.13,4.59Z"/>
    <path class="st0" d="M591.57,680.02c-3.3-25.21.78-50.53.84-50.9l-11.44-1.91c-.27,1.59-4.36,26.97-1.02,53.41,3.88-.21,7.75-.41,11.63-.6Z"/>
    <path class="st0" d="M697.88,679.41c-18.25,0-37.85-2.6-51.7-11.45l6.25-9.78c28.76,18.4,91.22,4.83,91.85,4.69l2.51,11.33c-1.59.35-23.98,5.21-48.91,5.21Z"/>
    <path class="st0" d="M644.42,666.2c-20.97-32.78-6.86-97.86-6.24-100.61l11.33,2.51c-.14.63-13.68,63.13,4.69,91.85l-9.78,6.25Z"/>
  </g>
  <g>
    <path class="st0" d="M352.33,739.96c-77.74-40.08-131.53-120.33-133.72-213.13,101.66,2.39,188.27,66.72,223.49,156.62,4.01-.28,8.01-.63,12.01-1.11-36.76-97.58-131.08-167.19-241.36-167.19h-5.8v5.8c0,104.03,61.93,193.85,150.86,234.57-2.09-5.09-3.73-10.35-5.47-15.57Z"/>
    <path class="st0" d="M383.35,683.36l-161.57-161.57-8.21,8.21,152.9,152.9c5.62.11,11.24.27,16.87.46Z"/>
    <path class="st0" d="M300.96,606.96l-9.78-6.25c18.03-28.18,5.99-60.9,5.87-61.23l10.84-4.14c.59,1.55,14.31,38.41-6.94,71.62Z"/>
    <path class="st0" d="M256.33,620.74c-16.23,0-28.25-4.27-29.13-4.59l3.97-10.9-1.99,5.45,1.98-5.45c.33.12,33.54,11.76,61.78-6.3l6.25,9.78c-14.63,9.36-30.06,12.02-42.87,12.02Z"/>
    <path class="st0" d="M412.44,684.16c3.92.05,7.84.05,11.75,0,4.21-27.67-.25-55.3-.53-56.95l-11.44,1.91c.07.39,4.6,28.55.23,55.05Z"/>
    <path class="st0" d="M306.74,679.41c-24.94,0-47.32-4.86-48.91-5.21l2.51-11.33c.63.14,63.13,13.68,91.85-4.69l6.25,9.78c-13.85,8.86-33.46,11.45-51.7,11.45Z"/>
    <path class="st0" d="M360.2,666.2l-9.78-6.25c18.37-28.72,4.83-91.22,4.69-91.85l11.33-2.51c.61,2.75,14.72,67.83-6.24,100.61Z"/>
  </g>
  <path class="st0" d="M331.25,676.14l.61,7.73c3.33,42.44,22.39,81.82,53.67,110.89,13.01,12.1,27.68,21.9,43.42,29.29.18-1.24.38-2.47.63-3.67.7-3.4,1.79-7.11,3.71-10.15-13.75-6.66-26.56-15.36-37.99-25.98-26.73-24.84-43.71-57.9-48.33-93.77h307.95c-4.62,35.88-21.6,68.93-48.33,93.77-11.38,10.58-24.15,19.25-37.84,25.9,1.05,2.71,2.13,5.4,3.07,8.15.62,1.82,1.15,3.66,1.58,5.52,15.56-7.36,30.06-17.09,42.95-29.07,31.28-29.07,50.34-68.45,53.67-110.89l.61-7.73h-339.37Z"/>
  <g>
    <g>
      <line class="st0" x1="498.52" y1="566.72" x2="498.52" y2="683.32"/>
      <rect class="st0" x="492.71" y="566.72" width="11.6" height="109.43"/>
    </g>
    <g>
      <line class="st0" x1="498.52" y1="432.87" x2="498.52" y2="561.77"/>
      <rect class="st0" x="492.71" y="432.87" width="11.6" height="128.89"/>
    </g>
    <g>
      <line class="st0" x1="603.37" y1="513.59" x2="512.23" y2="604.73"/>
      <rect class="st0" x="493.35" y="553.36" width="128.89" height="11.61" transform="translate(-232.01 558.2) rotate(-45)"/>
    </g>
    <g>
      <line class="st0" x1="396.01" y1="513.59" x2="487.15" y2="604.73"/>
      <rect class="st0" x="435.78" y="494.71" width="11.61" height="128.89" transform="translate(-266.05 476.02) rotate(-45)"/>
    </g>
    <g>
      <path class="st0" d="M498.52,435.78c7.05,8.76,12.07,20.02,15.08,32.35l10.24-6.39c-4.22-15.17-11.27-28.8-21.22-38.75l-4.1-4.1-4.1,4.1c-19.35,19.35-27.85,52.57-25.52,84.12l11.78,2.3c-2.66-26.8,3.29-55.54,17.84-73.63Z"/>
      <path class="st0" d="M514.3,471.17c6.47,30.11,1.21,65.74-15.78,86.86-9.68-12.03-15.53-28.76-17.6-46.49l-11.08,4.24c3,21.56,11.18,41.64,24.58,55.04l4.1,4.1,4.1-4.1c22.56-22.57,30.38-64,23.46-99.65h-11.78Z"/>
    </g>
    <g>
      <path class="st0" d="M601.02,515.94c-1.21,11.18-5.62,22.69-12.21,33.54l11.76,2.72c7.74-13.71,12.4-28.33,12.4-42.4v-5.8s-5.8,0-5.8,0c-27.36,0-56.86,17.48-77.53,41.43l6.7,9.96c17.07-20.83,41.59-36.95,64.68-39.45Z"/>
      <path class="st0" d="M587.16,552.12c-16.72,25.87-45.63,47.34-72.58,50.26,1.66-15.34,9.35-31.32,20.43-45.32l-10.83-4.84c-13.13,17.36-21.54,37.34-21.54,56.31v5.8s5.8,0,5.8,0c31.91,0,66.74-23.77,87.05-53.88l-8.33-8.33Z"/>
    </g>
    <g>
      <path class="st0" d="M484.8,602.38c-11.18-1.21-22.69-5.62-33.54-12.21l-2.72,11.76c13.71,7.74,28.33,12.4,42.4,12.4h5.8s0-5.8,0-5.8c0-27.36-17.48-56.86-41.43-77.53l-9.96,6.7c20.83,17.07,36.95,41.59,39.45,64.68Z"/>
      <path class="st0" d="M448.62,588.52c-25.87-16.72-47.34-45.63-50.26-72.58,15.34,1.66,31.32,9.35,45.32,20.43l4.84-10.83c-17.36-13.13-37.34-21.54-56.31-21.54h-5.8s0,5.8,0,5.8c0,31.91,23.77,66.74,53.88,87.05l8.33-8.33Z"/>
    </g>
  </g>
  <path class="st0" d="M261.78,322.97c-9.61,0-17.43-7.82-17.43-17.43s7.82-17.43,17.43-17.43,17.43,7.82,17.43,17.43-7.82,17.43-17.43,17.43ZM261.78,299.72c-3.21,0-5.82,2.61-5.82,5.82s2.61,5.82,5.82,5.82,5.82-2.61,5.82-5.82-2.61-5.82-5.82-5.82Z"/>
  <path class="st0" d="M741.34,322.97c-9.61,0-17.43-7.82-17.43-17.43s7.82-17.43,17.43-17.43,17.43,7.82,17.43,17.43-7.82,17.43-17.43,17.43ZM741.34,299.72c-3.21,0-5.82,2.61-5.82,5.82s2.61,5.82,5.82,5.82,5.82-2.61,5.82-5.82-2.61-5.82-5.82-5.82Z"/>
  <path class="st0" d="M667.24,526.84c-9.61,0-17.43-7.82-17.43-17.43s7.82-17.43,17.43-17.43,17.43,7.82,17.43,17.43-7.82,17.43-17.43,17.43ZM667.24,503.59c-3.21,0-5.82,2.61-5.82,5.82s2.61,5.82,5.82,5.82,5.82-2.61,5.82-5.82-2.61-5.82-5.82-5.82Z"/>
  <path class="st0" d="M620.53,868.61c-9.61,0-17.43-7.82-17.43-17.43s7.82-17.43,17.43-17.43,17.43,7.82,17.43,17.43-7.82,17.43-17.43,17.43ZM620.53,845.36c-3.21,0-5.82,2.61-5.82,5.82s2.61,5.82,5.82,5.82,5.82-2.61,5.82-5.82-2.61-5.82-5.82-5.82Z"/>
  <path class="st0" d="M379.25,868.61c-9.61,0-17.43-7.82-17.43-17.43s7.82-17.43,17.43-17.43,17.43,7.82,17.43,17.43-7.82,17.43-17.43,17.43ZM379.25,845.36c-3.21,0-5.82,2.61-5.82,5.82s2.61,5.82,5.82,5.82,5.82-2.61,5.82-5.82-2.61-5.82-5.82-5.82Z"/>
  <path class="st0" d="M334.1,526.84c-9.61,0-17.43-7.82-17.43-17.43s7.82-17.43,17.43-17.43,17.43,7.82,17.43,17.43-7.82,17.43-17.43,17.43ZM334.1,503.59c-3.21,0-5.82,2.61-5.82,5.82s2.61,5.82,5.82,5.82,5.82-2.61,5.82-5.82-2.61-5.82-5.82-5.82Z"/>
  <path class="st0" d="M500.94,903.59c-42.08,0-76.32-34.24-76.32-76.32s34.24-76.32,76.32-76.32,76.32,34.24,76.32,76.32-34.24,76.32-76.32,76.32ZM500.94,765.33c-34.15,0-61.94,27.79-61.94,61.94s27.79,61.94,61.94,61.94,61.94-27.79,61.94-61.94-27.79-61.94-61.94-61.94Z"/>
  <path class="st0" d="M525.83,847.2c-1.79-4.85-3.59-9.71-5.43-14.54-.11-.29-.14-.44-.15-.45.03-.05.13-.17.38-.4,9.47-8.44,12.3-22.44,6.86-34.04-5.47-11.69-17.96-18.55-30.34-16.64-12.25,1.88-20.6,8.94-24.15,20.45-3.51,11.41-.58,21.94,8.49,30.45.06.06.11.1.14.14-.01.05-.04.12-.07.2-1.11,2.94-2.19,5.88-3.28,8.83-1.88,5.1-3.82,10.38-5.85,15.5-1.08,2.73-.92,5.31.46,7.27,1.32,1.87,3.57,2.93,6.23,2.93.11,0,.22,0,.34,0,4.99-.17,10.1-.13,15.04-.09,2.12.01,4.24.03,6.36.03h5.87c5.37,0,10.75-.01,16.13.01,1.04.02,4.23.01,6.19-2.85,1.97-2.87.87-5.81.51-6.77-1.25-3.34-2.49-6.68-3.73-10.03ZM495.29,833.22c1.61-4.32.74-6.98-3.07-9.48-6.39-4.2-8.98-11.78-6.45-18.86,2.57-7.16,9.5-11.39,17.28-10.56,7.09.77,13.04,6.76,13.84,13.95.73,6.48-1.69,11.68-7.19,15.44-3.92,2.68-4.73,5.18-3.1,9.58l7.55,20.34h-26.44l7.58-20.4Z"/>
</svg>